<?xml version="1.0" encoding="UTF-8"?>
<svg version="1.1" xmlns="http://www.w3.org/2000/svg" width="1113" height="506">
<path d="M0 0 C-2.71845178 26.75567835 -5.43909968 53.5111326 -8.16236782 80.26632118 C-9.42675404 92.68899747 -10.69041939 105.1117463 -11.95239258 117.53466797 C-13.05222856 128.3614855 -14.15341214 139.18816497 -15.25621945 150.01468027 C-15.84018834 155.74810662 -16.42347859 161.48160019 -17.00515556 167.21525955 C-17.55259553 172.61122873 -18.10183629 178.00701156 -18.65246201 183.40265656 C-18.85428709 185.38351309 -19.05545272 187.36443695 -19.25591087 189.34543228 C-19.52966484 192.04977818 -19.80578913 194.75387199 -20.08250427 197.45791626 C-20.20069988 198.63400371 -20.20069988 198.63400371 -20.32128328 199.8338505 C-20.74213014 203.91967705 -21.27429103 207.95694364 -22 212 C-27.54638501 207.97615205 -32.80508573 203.67706462 -38.01733398 199.234375 C-42.26875529 195.6116893 -46.568148 192.0547788 -50.90234375 188.53125 C-53.36552635 186.52550374 -55.81103974 184.4991845 -58.25390625 182.46875 C-59.00575195 181.84524658 -59.75759766 181.22174316 -60.53222656 180.5793457 C-62.01911034 179.34574159 -63.50422509 178.11000118 -64.98730469 176.87182617 C-68.8629113 173.66157719 -72.75230469 170.700654 -77 168 C-77.7734375 168.78503906 -78.546875 169.57007813 -79.34375 170.37890625 C-84.46798612 175.55593553 -89.59030296 180.6347207 -95.140625 185.359375 C-97.18300828 187.16147789 -99.08901711 189.05938947 -101 191 C-104.1498003 194.19261312 -107.41219489 197.17161279 -110.8125 200.09375 C-113.35511399 202.30945648 -115.83110198 204.59098592 -118.3125 206.875 C-122.79662928 210.96437787 -127.40267238 214.84619021 -132.125 218.65625 C-134.69344213 220.75008869 -137.22013296 222.88156979 -139.73706055 225.03637695 C-146.02207795 230.41269457 -152.45546961 235.55523881 -159.06103516 240.53369141 C-161.2705244 242.2045794 -163.46884329 243.88971616 -165.66796875 245.57421875 C-176.15131199 253.56711729 -186.7902083 261.06548927 -198 268 C-198.75684082 268.47501953 -199.51368164 268.95003906 -200.29345703 269.43945312 C-245.81520266 297.9527644 -298.74998947 317.96956961 -353 306 C-353.98564941 305.79117188 -353.98564941 305.79117188 -354.99121094 305.578125 C-365.25500864 303.3443917 -374.59078339 299.55176711 -384 295 C-384.68852051 294.66871094 -385.37704102 294.33742188 -386.08642578 293.99609375 C-401.79679435 286.32858842 -415.71039549 276.30539272 -429 265 C-430.2282469 263.9780602 -431.45724274 262.95701875 -432.6875 261.9375 C-433.450625 261.298125 -434.21375 260.65875 -435 260 C-434.34 259.67 -433.68 259.34 -433 259 C-430.63018159 260.10081887 -428.35980736 261.26237482 -426.0625 262.5 C-393.81444772 279.18167708 -354.30388556 286.36287564 -319.0859375 275.5234375 C-294.69047616 267.61616742 -274.35007554 254.51621815 -255.484375 237.26171875 C-253.88709242 235.80758885 -252.27357361 234.37099172 -250.640625 232.95703125 C-240.16862274 223.83680706 -230.77538549 213.49018493 -222.12109375 202.64453125 C-219.90474479 199.88123798 -217.61190271 197.19443786 -215.3125 194.5 C-209.10375323 187.06103715 -203.43331583 179.23655957 -197.74511719 171.39648438 C-196.13642483 169.18734557 -194.51279723 166.9903241 -192.8828125 164.796875 C-183.03373362 151.46314834 -174.0676772 137.55120195 -165.06280518 123.64135742 C-163.49030643 121.2128479 -161.91484296 118.78626335 -160.33984375 116.359375 C-157.88725127 112.57674896 -155.44086779 108.79020145 -153 105 C-156.70671108 101.19610923 -160.57860825 97.68800839 -164.625 94.25 C-165.2439917 93.72196777 -165.8629834 93.19393555 -166.50073242 92.64990234 C-170.93640512 88.87697873 -175.41794416 85.16432662 -179.9375 81.4921875 C-183.90878126 78.26045606 -187.86075536 75.00557142 -191.8125 71.75 C-192.53026611 71.15912598 -193.24803223 70.56825195 -193.98754883 69.95947266 C-198.0025764 66.65253889 -202.00764599 63.33427368 -206 60 C-202.99004065 57.99336043 -200.70932817 57.1841 -197.26293945 56.16601562 C-196.06230865 55.80863815 -194.86167786 55.45126068 -193.62466431 55.08305359 C-192.28756362 54.69069372 -190.95043493 54.29842924 -189.61328125 53.90625 C-188.19968924 53.48760503 -186.78623035 53.06851031 -185.37289429 52.64900208 C-181.50149648 51.50129394 -177.62824777 50.35994855 -173.75466537 49.21963882 C-169.64434976 48.0084421 -165.53577553 46.79136649 -161.42700195 45.57495117 C-153.43487363 43.20985787 -145.44116806 40.85013955 -137.44692326 38.49221134 C-127.87229328 35.66790559 -118.29925547 32.83822056 -108.72630501 30.0082283 C-85.59409372 23.16981682 -85.59409372 23.16981682 -74.47854137 19.88932228 C-72.69548772 19.36308322 -70.91246307 18.83674586 -69.12946796 18.31030846 C-64.80383564 17.03319867 -60.47784001 15.75735117 -56.15101624 14.48428345 C-48.41780857 12.20680503 -40.69020155 9.91395265 -32.97885799 7.56334782 C-29.52457707 6.51058517 -26.06829113 5.46448696 -22.61197853 4.41841698 C-20.98209832 3.92270599 -19.35332363 3.4233437 -17.72574425 2.92012978 C-15.49269812 2.22975753 -13.25628919 1.55153579 -11.01879883 0.87573242 C-10.36261629 0.66909407 -9.70643375 0.46245571 -9.0303669 0.24955559 C-5.57245217 -0.78088248 -3.43075641 -1.03608151 0 0 Z " fill="#4ECCA3" transform="translate(779,1)"/>
<path d="M0 0 C2.01436976 -0.00202552 4.0287388 -0.00494092 6.04310608 -0.00869751 C10.24812864 -0.01309937 14.45295893 -0.00675975 18.65795898 0.00732422 C24.01488297 0.02440359 29.37135548 0.01456898 34.7282629 -0.00339317 C38.88329899 -0.01429849 43.03823027 -0.01075371 47.19326973 -0.0030098 C49.1669883 -0.00102582 51.14071676 -0.00340277 53.11442375 -0.01044846 C68.80763346 -0.05418565 83.94963395 0.07578671 96.2265625 11.28515625 C103.02729185 18.51181854 105.56402312 27.08815848 105.44921875 36.98046875 C104.63252172 43.81202901 102.65416549 51.09318877 98.16015625 56.3984375 C98.44761719 56.96820313 98.73507813 57.53796875 99.03125 58.125 C104.27042896 68.67587252 106.89136839 78.29950118 103.97265625 90.03515625 C100.80475651 99.24948001 95.35459056 105.33081159 86.70703125 109.61328125 C78.76611264 113.03567102 70.99408178 113.54875316 62.45605469 113.54370117 C61.62560135 113.54705978 60.79514801 113.5504184 59.93952942 113.55387878 C57.21618113 113.56331427 54.49289483 113.56532823 51.76953125 113.56640625 C49.85915096 113.56962424 47.9487709 113.57298871 46.03839111 113.57649231 C42.04072499 113.58246528 38.04308042 113.58433412 34.04541016 113.58374023 C28.9506857 113.58363878 23.85610113 113.59728202 18.76140976 113.61451244 C14.81660338 113.62569215 10.87183017 113.62765761 6.92700958 113.62713051 C5.0501482 113.62830198 3.17328572 113.63267638 1.29644012 113.64046288 C-29.52724251 113.75636269 -29.52724251 113.75636269 -42.23046875 103.4609375 C-48.84088542 96.80155478 -51.85964651 88.09643995 -52.27734375 78.7734375 C-51.85847999 70.9305747 -49.69331723 63.59080022 -44.83984375 57.3984375 C-45.12730469 56.82996094 -45.41476563 56.26148438 -45.7109375 55.67578125 C-51.51087195 43.97556747 -53.84410472 33.93485269 -49.9375 21.0703125 C-46.60679789 12.96283832 -40.55125656 7.32433541 -32.83984375 3.3984375 C-22.27244045 -0.6212398 -11.11137893 -0.03961797 0 0 Z M-28.27734375 28.0859375 C-29.49746633 33.10199698 -29.75375179 36.84140899 -27.15234375 41.2734375 C-22.16524785 45.85617428 -17.07861146 45.69573632 -10.64672852 45.68896484 C-9.27020615 45.69904068 -9.27020615 45.69904068 -7.86587524 45.70932007 C-4.8376115 45.72829088 -1.80956944 45.7322236 1.21875 45.734375 C3.32715445 45.74080278 5.435558 45.74753112 7.54396057 45.75454712 C11.96137561 45.76651703 16.37871246 45.77022815 20.79614258 45.76904297 C26.4533162 45.76883962 32.10998838 45.79615985 37.76704311 45.83058739 C42.12081705 45.85283456 46.4744698 45.8568812 50.82829475 45.85582352 C52.91387729 45.85818206 54.99946304 45.86701983 57.08498955 45.88248825 C60.00289861 45.90210684 62.91971952 45.89632657 65.83764648 45.88427734 C66.69653976 45.89551636 67.55543304 45.90675537 68.44035339 45.91833496 C73.94904193 45.86059611 76.91954654 44.9803292 81.16015625 41.3984375 C82.90159662 37.91555677 82.73870831 34.19847265 82.16015625 30.3984375 C79.06928408 26.12576126 76.16562144 24.71463226 71.16015625 23.3984375 C68.18342661 23.1197639 65.22477009 23.11473301 62.23657227 23.1237793 C61.35936523 23.11866837 60.4821582 23.11355743 59.57836914 23.10829163 C56.69019675 23.09443706 53.80226409 23.09534921 50.9140625 23.09765625 C48.89916394 23.09376721 46.8842662 23.08943211 44.86936951 23.08467102 C40.65043477 23.07721782 36.43158374 23.0774937 32.21264648 23.08276367 C26.81462536 23.08855881 21.4169473 23.07162174 16.01898289 23.048419 C11.85904447 23.03366555 7.69918839 23.03281213 3.53922844 23.03592873 C1.54938006 23.03541638 -0.44047302 23.03019502 -2.43029594 23.02011681 C-5.21604395 23.00773777 -8.00112733 23.01455278 -10.78686523 23.02612305 C-11.60318924 23.01847931 -12.41951324 23.01083557 -13.26057434 23.00296021 C-18.75460251 23.05322741 -24.48295089 23.63165023 -28.27734375 28.0859375 Z M-27.83984375 72.3984375 C-29.57993029 75.87861058 -29.42449243 79.60150565 -28.83984375 83.3984375 C-25.99649576 87.21664766 -23.33391973 89.01263989 -18.83984375 90.3984375 C-15.87161122 90.68743373 -12.91847874 90.68197814 -9.93798828 90.6730957 C-8.60776642 90.6807621 -8.60776642 90.6807621 -7.25067139 90.68858337 C-4.32459732 90.70246181 -1.39875928 90.70152379 1.52734375 90.69921875 C3.56609179 90.70310687 5.60483902 90.70744179 7.64358521 90.71220398 C11.9155744 90.71966261 16.18748096 90.71937765 20.45947266 90.71411133 C25.92590218 90.70831976 31.39199255 90.725242 36.85836601 90.748456 C41.06891854 90.76321006 45.27938973 90.76406271 49.48996353 90.76094627 C51.5049316 90.76145873 53.51990432 90.76668219 55.53484726 90.77675819 C58.35662416 90.78913642 61.17774481 90.78232233 63.99951172 90.77075195 C64.82675751 90.77839569 65.6540033 90.78603943 66.50631714 90.79391479 C71.78773262 90.74620643 75.46448239 89.8607324 80.16015625 87.3984375 C82.62520613 84.50468329 82.58077861 81.09421786 82.4765625 77.36328125 C81.95994269 74.15513599 80.50945692 72.55725433 78.16015625 70.3984375 C73.5464981 67.91402661 69.07147601 68.10253622 63.96704102 68.10791016 C63.04935944 68.10119293 62.13167786 68.09447571 61.18618774 68.08755493 C58.157924 68.06858412 55.12988194 68.0646514 52.1015625 68.0625 C49.99315805 68.05607222 47.8847545 68.04934388 45.77635193 68.04232788 C41.35893689 68.03035797 36.94160004 68.02664685 32.52416992 68.02783203 C26.8669963 68.02803538 21.21032412 68.00071515 15.55326939 67.96628761 C11.19949545 67.94404044 6.8458427 67.9399938 2.49201775 67.94105148 C0.40643521 67.93869294 -1.67915054 67.92985517 -3.76467705 67.91438675 C-6.68258611 67.89476816 -9.59940702 67.90054843 -12.51733398 67.91259766 C-13.37622726 67.90135864 -14.23512054 67.89011963 -15.12004089 67.87854004 C-20.62872943 67.93627889 -23.59923404 68.8165458 -27.83984375 72.3984375 Z " fill="#C4C0B8" transform="translate(51.83984375,392.6015625)"/>
<path d="M0 0 C1.26898636 -0.00029205 2.53797272 -0.00058411 3.84541321 -0.00088501 C7.30775559 -0.00145649 10.76995809 0.01026452 14.2322681 0.02426291 C17.857073 0.03680449 21.48188146 0.03794346 25.10670471 0.04031372 C31.96303363 0.04651844 38.81929842 0.06291556 45.67559916 0.0830127 C53.48455188 0.10540314 61.29350773 0.11637303 69.10248458 0.12640357 C85.15893777 0.14728273 101.21532241 0.18284408 117.27172852 0.22705078 C117.27172852 7.48705078 117.27172852 14.74705078 117.27172852 22.22705078 C114.94603065 22.23585014 114.94603065 22.23585014 112.573349 22.24482727 C97.96228626 22.30203803 83.35139125 22.37461448 68.74048519 22.46276569 C61.22885989 22.50769187 53.71728166 22.5471138 46.20556641 22.57348633 C39.65677743 22.59649223 33.10813782 22.62991905 26.55946738 22.67575234 C23.09339895 22.69964983 19.62747814 22.71840126 16.16132927 22.72466469 C12.28772681 22.73185995 8.41449359 22.76232522 4.54101562 22.79467773 C3.39734024 22.79324265 2.25366486 22.79180756 1.07533264 22.79032898 C-4.93324057 22.86130783 -9.46302167 23.21748678 -14.72827148 26.22705078 C-15.95518215 28.68087212 -15.9300308 30.42689181 -15.97827148 33.16455078 C-16.00405273 34.03982422 -16.02983398 34.91509766 -16.05639648 35.81689453 C-15.91658732 38.23948258 -15.91658732 38.23948258 -14.52514648 39.91845703 C-9.48536785 43.5887306 -4.51523758 43.53790037 1.47729492 43.57421875 C2.39669861 43.58759277 3.31610229 43.6009668 4.2633667 43.61474609 C6.25651431 43.64279812 8.24972524 43.66660178 10.24296951 43.68664169 C13.4054881 43.71957356 16.56754195 43.76605688 19.72982788 43.81643677 C28.71995684 43.95764711 37.71027909 44.07786576 46.70092773 44.18066406 C52.20537322 44.24455226 57.70928702 44.32718453 63.2132988 44.42105484 C65.30300633 44.45291862 67.39283616 44.47764238 69.48271561 44.49486923 C83.86735841 44.61511214 96.92441738 45.20432849 108.27172852 55.22705078 C114.48951043 62.77912066 117.74943792 70.94961364 117.54125977 80.82861328 C116.4376746 90.64892187 113.06367533 98.970835 105.27172852 105.22705078 C97.95211153 109.71755511 91.42458771 112.3557582 82.81108093 112.3473053 C81.72719589 112.34867996 80.64331085 112.35005463 79.52658081 112.35147095 C78.34766266 112.34787567 77.16874451 112.3442804 75.95410156 112.34057617 C74.7049144 112.3407222 73.45572723 112.34086823 72.16868591 112.34101868 C68.75171179 112.34044213 65.33479838 112.33543302 61.917835 112.32844472 C58.34372878 112.32218583 54.76962172 112.32160538 51.19551086 112.32041931 C44.43121985 112.31731347 37.66694503 112.30911015 30.90266114 112.29906982 C23.20015469 112.28788548 15.49764746 112.28239238 7.7951349 112.27737439 C-8.04601019 112.26692692 -23.88713811 112.24914008 -39.72827148 112.22705078 C-39.72827148 104.63705078 -39.72827148 97.04705078 -39.72827148 89.22705078 C-38.14830887 89.22118454 -36.56834625 89.2153183 -34.94050598 89.20927429 C-20.06393099 89.1521061 -5.18752149 89.07955306 9.68889904 88.99133587 C17.33734446 88.94637587 24.98574329 88.90696172 32.63427734 88.88061523 C39.30097324 88.85763675 45.96752174 88.82424052 52.63410074 88.77834922 C56.1638214 88.7544148 59.69339607 88.73568754 63.22319603 88.72943687 C67.16425968 88.7222627 71.10495747 88.69182951 75.04589844 88.65942383 C76.21546585 88.66085892 77.38503326 88.66229401 78.59004211 88.66377258 C79.665513 88.65123444 80.74098389 88.63869629 81.8490448 88.6257782 C82.78097751 88.62116923 83.71291021 88.61656027 84.67308331 88.61181164 C87.81041217 88.14729215 89.71110935 87.06966051 92.27172852 85.22705078 C94.00103758 81.76843266 93.75036922 78.00898653 93.27172852 74.22705078 C90.68092323 70.34084286 87.67884616 69.41186059 83.27172852 68.22705078 C80.26032753 67.95100967 77.2663061 67.95664775 74.24389648 67.97167969 C73.35521378 67.96805923 72.46653107 67.96443878 71.55091858 67.96070862 C69.62759296 67.95383438 67.70424792 67.95130547 65.78091049 67.95265579 C62.7273529 67.95362489 59.67414363 67.94063151 56.62063599 67.92367554 C47.9408846 67.87753222 39.26116871 67.85282183 30.58129883 67.84619141 C25.26388751 67.84115112 19.94683897 67.81677139 14.62955093 67.78086472 C12.61316236 67.77112239 10.59672351 67.76870406 8.58031845 67.77403641 C-6.1815621 67.81122969 -18.79797159 66.94426732 -30.72827148 57.22705078 C-36.92397077 51.03135149 -39.84186314 42.21851135 -39.97827148 33.60205078 C-39.84163323 23.3790252 -37.14040283 15.47292871 -29.72827148 8.22705078 C-20.1189067 1.02388327 -11.70969629 -0.07073011 0 0 Z " fill="#C5C0B8" transform="translate(995.728271484375,392.77294921875)"/>
<path d="M0 0 C51.48 0 102.96 0 156 0 C156 7.59 156 15.18 156 23 C111.78 23 67.56 23 22 23 C22 29.93 22 36.86 22 44 C66.55 44.495 66.55 44.495 112 45 C112 63 112 63 111 68 C81.63 67.67 52.26 67.34 22 67 C22 74.26 22 81.52 22 89 C66.22 89 110.44 89 156 89 C156 96.59 156 104.18 156 112 C104.52 112 53.04 112 0 112 C0 75.04 0 38.08 0 0 Z " fill="#C5C0B8" transform="translate(381,394)"/>
<path d="M0 0 C30.21646652 -0.12049101 30.21646652 -0.12049101 45.20589352 -0.1507616 C53.29332235 -0.16734731 61.38065776 -0.18836136 69.46801758 -0.22631836 C75.87394447 -0.25636925 82.27980065 -0.27560994 88.68579608 -0.28226548 C92.07275677 -0.28615141 95.45951533 -0.29518112 98.84641075 -0.31719017 C102.64211133 -0.33912812 106.43740002 -0.34196004 110.2331543 -0.34057617 C111.33655655 -0.351362 112.4399588 -0.36214783 113.57679749 -0.3732605 C126.27031815 -0.32353841 138.07678763 2.01798996 147.80859375 10.59375 C154.30489713 17.46265931 157.1134835 26.66598192 157 36 C156.24696335 45.49364064 153.27207503 53.19035891 146.3125 59.8125 C139.95726361 65.01004627 131.71930186 68.12999917 123.49481201 68.12025452 C122.59741302 68.12162918 121.70001404 68.12300385 120.77542114 68.12442017 C119.31022537 68.11902725 119.31022537 68.11902725 117.81542969 68.11352539 C116.7809671 68.11367142 115.74650452 68.11381744 114.68069458 68.1139679 C111.26106673 68.11327117 107.84149334 68.10548994 104.421875 68.09765625 C102.05104604 68.09579122 99.68021669 68.09436772 97.30938721 68.09336853 C91.06883684 68.08955006 84.82830973 68.07972545 78.58776855 68.06866455 C72.2199739 68.05843606 65.8521755 68.05386782 59.484375 68.04882812 C46.98957147 68.03810261 34.49479131 68.0205112 22 68 C22 82.85 22 97.7 22 113 C14.74 113 7.48 113 0 113 C0 75.71 0 38.42 0 0 Z M23 23 C23 30.26 23 37.52 23 45 C36.47355631 45.06775171 49.94699964 45.12280237 63.42068768 45.15543652 C69.67692578 45.17109851 75.93304138 45.19234683 82.18920898 45.22631836 C88.22571328 45.25889231 94.26209968 45.27684899 100.29868507 45.28463173 C102.60280018 45.29017873 104.90690877 45.30101052 107.21097374 45.31719017 C110.43595751 45.33893792 113.66045286 45.34196798 116.88549805 45.34057617 C117.83999847 45.351362 118.7944989 45.36214783 119.77792358 45.3732605 C124.6709161 45.35038077 128.04264797 45.22309254 132 42 C134.56632517 38.57823311 134.36435051 35.15359579 134 31 C133.15254366 28.14298293 133.15254366 28.14298293 131 26 C124.80232819 23.12802633 119.68326643 22.57884169 112.91210938 22.65942383 C111.93558411 22.65898575 110.95905884 22.65854767 109.95294189 22.65809631 C106.74966912 22.66017362 103.54693048 22.68345486 100.34375 22.70703125 C98.11316209 22.71263096 95.88257047 22.71689929 93.65197754 22.71989441 C87.79937438 22.73131359 81.94699684 22.76075569 76.09448242 22.79400635 C70.11510265 22.82477032 64.13568621 22.83841326 58.15625 22.85351562 C46.43738525 22.88562816 34.71874674 22.93837229 23 23 Z " fill="#C5C0B8" transform="translate(766,392)"/>
<path d="M0 0 C3.22417499 1.37196174 4.8673217 2.76919734 6.890625 5.61328125 C7.426875 6.35578125 7.963125 7.09828125 8.515625 7.86328125 C9.08796875 8.67152344 9.6603125 9.47976563 10.25 10.3125 C11.50353328 12.04938722 12.7588066 13.78501968 14.015625 15.51953125 C14.66853516 16.42268066 15.32144531 17.32583008 15.99414062 18.25634766 C19.26027763 22.72383155 22.63066483 27.11013719 26 31.5 C31.06748353 38.1187168 36.07427776 44.77511659 41 51.5 C46.6365879 59.19366025 52.38576624 66.79540626 58.17749023 74.37280273 C63.1195298 80.83897234 68.02266071 87.33241676 72.89453125 93.8515625 C75.27833606 97.041016 77.67460749 100.22085991 80.07421875 103.3984375 C80.76700928 104.3174585 81.4597998 105.23647949 82.17358398 106.18334961 C83.53975831 107.99543809 84.90771199 109.80618667 86.27758789 111.61547852 C87.19979126 112.84028931 87.19979126 112.84028931 88.140625 114.08984375 C88.69266602 114.82066162 89.24470703 115.55147949 89.81347656 116.30444336 C91 118 91 118 91 119 C66.98093076 122.32380672 66.98093076 122.32380672 59.20117188 117.13232422 C54.48066772 112.38559504 51.15842475 106.85558703 47.80787659 101.10084534 C46.91297768 99.5659269 46.91297768 99.5659269 46 98 C45.14389381 96.45332138 45.14389381 96.45332138 44.27049255 94.87539673 C41.27479342 90.13104158 38.96097287 86.65945889 33.50985718 84.82629395 C29.2525205 84.31108098 25.14457382 84.16854611 20.86328125 84.1953125 C19.29538466 84.17193158 17.72752545 84.14591153 16.15971375 84.11740112 C12.88134474 84.07279947 9.60685163 84.07421873 6.32836914 84.10595703 C2.9884798 84.13376843 -0.3383186 84.09240747 -3.67651367 83.98291016 C-23.13776167 82.5522031 -23.13776167 82.5522031 -40.18481445 89.85620117 C-43.33901476 93.4969042 -45.68115564 97.3786877 -47.80232239 101.6907196 C-49.74285013 105.43231302 -52.28872036 108.70057708 -54.8125 112.0625 C-55.61470453 113.19638009 -56.41326411 114.33285368 -57.20703125 115.47265625 C-59 118 -59 118 -60 119 C-62.07262076 119.08767112 -64.14820294 119.10695873 -66.22265625 119.09765625 C-68.11274414 119.09282227 -68.11274414 119.09282227 -70.04101562 119.08789062 C-71.38151109 119.07953403 -72.72200588 119.07106907 -74.0625 119.0625 C-75.40689942 119.0574866 -76.7513006 119.05292342 -78.09570312 119.04882812 C-81.39717941 119.03699488 -84.69856803 119.02050971 -88 119 C-84.77272529 112.9386211 -80.832012 107.66532365 -76.625 102.25 C-71.34142817 95.38615987 -66.11293546 88.49194109 -61 81.5 C-56.05859445 74.75002163 -51.02621588 68.07706263 -45.9375 61.4375 C-41.02578223 55.02602108 -36.19806122 48.56967632 -31.5 42 C-24.79629724 32.62574208 -17.79606909 23.48636941 -10.78710938 14.33935547 C-7.15599116 9.5861622 -3.57453476 4.79583413 0 0 Z M0 38 C-1.54326788 39.59324246 -1.54326788 39.59324246 -3.1171875 41.69140625 C-3.72433594 42.47193359 -4.33148437 43.25246094 -4.95703125 44.05664062 C-5.58996094 44.88357422 -6.22289062 45.71050781 -6.875 46.5625 C-7.50019531 47.36236328 -8.12539063 48.16222656 -8.76953125 48.98632812 C-12.31060217 53.57175294 -15.08159964 57.89279936 -18 63 C-5.79 63 6.42 63 19 63 C16.63311951 57.08279878 13.31852628 52.73723335 9.5 47.6875 C8.46552734 46.29047852 8.46552734 46.29047852 7.41015625 44.86523438 C6.74886719 43.98544922 6.08757812 43.10566406 5.40625 42.19921875 C4.80103516 41.39315186 4.19582031 40.58708496 3.57226562 39.7565918 C2.79399414 38.88707886 2.79399414 38.88707886 2 38 C1.34 38 0.68 38 0 38 Z " fill="#C5C0B8" transform="translate(650,386)"/>
<path d="M0 0 C7.59 0 15.18 0 23 0 C23 29.7 23 59.4 23 90 C67.22 90 111.44 90 157 90 C157 97.59 157 105.18 157 113 C105.19 113 53.38 113 0 113 C0 75.71 0 38.42 0 0 Z " fill="#C4BFB7" transform="translate(190,393)"/>
<path d="M0 0 C2 1 2 1 2 1 Z " fill="#54CEA6" transform="translate(342,259)"/>
<path d="" fill="#4ECCA3" transform="translate(0,0)"/>
<path d="" fill="#56CFA8" transform="translate(0,0)"/>
</svg>
