<svg xmlns="http://www.w3.org/2000/svg" viewBox="0 0 200 400">
  <defs>
    <linearGradient id="rocketGradient" x1="0%" y1="0%" x2="100%" y2="100%">
      <stop offset="0%" style="stop-color:#000000" />
      <stop offset="100%" style="stop-color:#333333" />
    </linearGradient>
  </defs>
  <!-- Rocket Body -->
  <path d="M100,20 L130,150 L130,300 C130,310 120,320 100,320 C80,320 70,310 70,300 L70,150 Z" fill="url(#rocketGradient)" />
  <!-- Rocket Tip -->
  <path d="M100,20 C120,20 130,40 130,60 L100,80 L70,60 C70,40 80,20 100,20 Z" fill="#000000" />
  <!-- Windows -->
  <circle cx="100" cy="120" r="10" fill="#ffffff" />
  <circle cx="100" cy="160" r="10" fill="#ffffff" />
  <circle cx="100" cy="200" r="10" fill="#ffffff" />
  <!-- Fins -->
  <path d="M70,250 L40,280 L40,220 Z" fill="#000000" />
  <path d="M130,250 L160,280 L160,220 Z" fill="#000000" />
  <!-- Flames -->
  <path d="M85,320 L70,360 L100,340 L130,360 L115,320" fill="#ff9900" />
  <path d="M90,320 L80,350 L100,335 L120,350 L110,320" fill="#ff0000" />
</svg>
